<mxfile host="Electron" agent="Mozilla/5.0 (Windows NT 10.0; Win64; x64) AppleWebKit/537.36 (KHTML, like Gecko) draw.io/27.0.9 Chrome/134.0.6998.205 Electron/35.4.0 Safari/537.36" version="27.0.9">
  <diagram name="ページ1" id="sQvZkpDGWBvRYiGQjWFD">
    <mxGraphModel dx="2864" dy="1201" grid="1" gridSize="10" guides="1" tooltips="1" connect="1" arrows="1" fold="1" page="1" pageScale="1" pageWidth="827" pageHeight="1169" math="0" shadow="0">
      <root>
        <mxCell id="0" />
        <mxCell id="1" parent="0" />
        <mxCell id="z3cWCiB7cAhFi7ba4ayj-67" value="MCOS" style="verticalAlign=top;align=left;spacingTop=8;spacingLeft=2;spacingRight=12;shape=cube;size=10;direction=south;fontStyle=4;html=1;whiteSpace=wrap;fillColor=#fff2cc;strokeColor=#d6b656;" vertex="1" parent="1">
          <mxGeometry x="70" y="1070" width="1550" height="790" as="geometry" />
        </mxCell>
        <mxCell id="z3cWCiB7cAhFi7ba4ayj-28" value="" style="shape=cylinder3;whiteSpace=wrap;html=1;boundedLbl=1;backgroundOutline=1;size=36.14285714285734;" vertex="1" parent="1">
          <mxGeometry x="750" y="1560" width="520" height="270" as="geometry" />
        </mxCell>
        <mxCell id="z3cWCiB7cAhFi7ba4ayj-61" value="次のImmediate" style="rounded=0;whiteSpace=wrap;html=1;verticalAlign=top;dashed=1;" vertex="1" parent="1">
          <mxGeometry x="796" y="1661.5" width="202.5" height="133.5" as="geometry" />
        </mxCell>
        <mxCell id="z3cWCiB7cAhFi7ba4ayj-59" value="Immediate" style="rounded=0;whiteSpace=wrap;html=1;verticalAlign=top;dashed=1;" vertex="1" parent="1">
          <mxGeometry x="1017.5" y="1660" width="202.5" height="133.5" as="geometry" />
        </mxCell>
        <mxCell id="-WGEHsa4TVuahqUQFX7x-6" value="MCOS" style="verticalAlign=top;align=left;spacingTop=8;spacingLeft=2;spacingRight=12;shape=cube;size=10;direction=south;fontStyle=4;html=1;whiteSpace=wrap;fillColor=#fff2cc;strokeColor=#d6b656;" parent="1" vertex="1">
          <mxGeometry x="100" y="550" width="570" height="280" as="geometry" />
        </mxCell>
        <mxCell id="-WGEHsa4TVuahqUQFX7x-60" value="録画サービス" style="rounded=0;whiteSpace=wrap;html=1;verticalAlign=top;" parent="1" vertex="1">
          <mxGeometry x="170" y="570" width="440" height="130" as="geometry" />
        </mxCell>
        <mxCell id="-WGEHsa4TVuahqUQFX7x-14" value="VSCreator" style="verticalAlign=top;align=left;spacingTop=8;spacingLeft=2;spacingRight=12;shape=cube;size=10;direction=south;fontStyle=4;html=1;whiteSpace=wrap;fillColor=#dae8fc;strokeColor=#6c8ebf;" parent="1" vertex="1">
          <mxGeometry x="81" y="1142" width="190" height="110" as="geometry" />
        </mxCell>
        <mxCell id="-WGEHsa4TVuahqUQFX7x-38" value="録画アプリ" style="rounded=0;whiteSpace=wrap;html=1;verticalAlign=top;" parent="1" vertex="1">
          <mxGeometry x="810" y="570" width="160" height="120" as="geometry" />
        </mxCell>
        <mxCell id="-WGEHsa4TVuahqUQFX7x-1" value="SSD" style="verticalAlign=top;align=left;spacingTop=8;spacingLeft=2;spacingRight=12;shape=cube;size=10;direction=south;fontStyle=4;html=1;whiteSpace=wrap;fillColor=#d5e8d4;strokeColor=#82b366;" parent="1" vertex="1">
          <mxGeometry x="100" y="260" width="570" height="210" as="geometry" />
        </mxCell>
        <mxCell id="-WGEHsa4TVuahqUQFX7x-2" value="" style="shape=note;whiteSpace=wrap;html=1;backgroundOutline=1;darkOpacity=0.05;fontSize=9;" parent="1" vertex="1">
          <mxGeometry x="483" y="296" width="92" height="127" as="geometry" />
        </mxCell>
        <mxCell id="-WGEHsa4TVuahqUQFX7x-3" value="動画ファイル" style="shape=note;whiteSpace=wrap;html=1;backgroundOutline=1;darkOpacity=0.05;fontSize=9;" parent="1" vertex="1">
          <mxGeometry x="468" y="310" width="90" height="120" as="geometry" />
        </mxCell>
        <mxCell id="-WGEHsa4TVuahqUQFX7x-4" value="動画ファイル" style="shape=note;whiteSpace=wrap;html=1;backgroundOutline=1;darkOpacity=0.05;fontSize=9;" parent="1" vertex="1">
          <mxGeometry x="452" y="326" width="90" height="120" as="geometry" />
        </mxCell>
        <mxCell id="-WGEHsa4TVuahqUQFX7x-5" value="イベント&lt;div&gt;ログ&lt;/div&gt;" style="shape=note;whiteSpace=wrap;html=1;backgroundOutline=1;darkOpacity=0.05;fontSize=9;" parent="1" vertex="1">
          <mxGeometry x="299" y="330" width="80" height="116" as="geometry" />
        </mxCell>
        <mxCell id="-WGEHsa4TVuahqUQFX7x-7" value="VSCreator" style="verticalAlign=top;align=left;spacingTop=8;spacingLeft=2;spacingRight=12;shape=cube;size=10;direction=south;fontStyle=4;html=1;whiteSpace=wrap;fillColor=#f8cecc;strokeColor=#b85450;" parent="1" vertex="1">
          <mxGeometry x="110" y="10" width="560" height="210" as="geometry" />
        </mxCell>
        <mxCell id="-WGEHsa4TVuahqUQFX7x-8" value="FIle API" style="shape=flexArrow;endArrow=classic;startArrow=classic;html=1;rounded=0;fillColor=default;endWidth=23.076923076923077;endSize=7.261538461538461;startWidth=23.076923076923077;startSize=7.261538461538461;" parent="1" edge="1">
          <mxGeometry width="100" height="100" relative="1" as="geometry">
            <mxPoint x="90" y="510" as="sourcePoint" />
            <mxPoint x="690" y="510" as="targetPoint" />
            <Array as="points" />
          </mxGeometry>
        </mxCell>
        <mxCell id="-WGEHsa4TVuahqUQFX7x-9" value="動画ビューワ" style="rounded=0;whiteSpace=wrap;html=1;" parent="1" vertex="1">
          <mxGeometry x="293" y="60" width="120" height="130" as="geometry" />
        </mxCell>
        <mxCell id="-WGEHsa4TVuahqUQFX7x-10" value="設定UI" style="rounded=0;whiteSpace=wrap;html=1;" parent="1" vertex="1">
          <mxGeometry x="130" y="72" width="120" height="78" as="geometry" />
        </mxCell>
        <mxCell id="-WGEHsa4TVuahqUQFX7x-11" value="録画&lt;div&gt;設定&lt;/div&gt;" style="shape=cylinder3;whiteSpace=wrap;html=1;boundedLbl=1;backgroundOutline=1;size=15;" parent="1" vertex="1">
          <mxGeometry x="325" y="716" width="60" height="80" as="geometry" />
        </mxCell>
        <mxCell id="-WGEHsa4TVuahqUQFX7x-12" value="" style="endArrow=classic;html=1;rounded=0;exitX=0;exitY=0.5;exitDx=0;exitDy=0;entryX=0;entryY=0;entryDx=0;entryDy=52.5;entryPerimeter=0;" parent="1" source="-WGEHsa4TVuahqUQFX7x-10" target="-WGEHsa4TVuahqUQFX7x-11" edge="1">
          <mxGeometry width="50" height="50" relative="1" as="geometry">
            <mxPoint x="90" y="50.000000000000114" as="sourcePoint" />
            <mxPoint x="99" y="637.3483146067415" as="targetPoint" />
            <Array as="points">
              <mxPoint x="-40" y="110" />
              <mxPoint x="-40" y="769" />
            </Array>
          </mxGeometry>
        </mxCell>
        <mxCell id="-WGEHsa4TVuahqUQFX7x-13" value="録画制御&lt;div&gt;ファイル転送&lt;/div&gt;&lt;div&gt;（RAMDisk→SSD)&lt;/div&gt;" style="rounded=0;whiteSpace=wrap;html=1;" parent="1" vertex="1">
          <mxGeometry x="438" y="601" width="120" height="60" as="geometry" />
        </mxCell>
        <mxCell id="-WGEHsa4TVuahqUQFX7x-15" value="RAM Disk&lt;div&gt;File API&lt;/div&gt;" style="shape=flexArrow;endArrow=classic;startArrow=classic;html=1;rounded=0;" parent="1" edge="1">
          <mxGeometry width="100" height="100" relative="1" as="geometry">
            <mxPoint x="690" y="870" as="sourcePoint" />
            <mxPoint x="690" y="720" as="targetPoint" />
          </mxGeometry>
        </mxCell>
        <mxCell id="-WGEHsa4TVuahqUQFX7x-17" value="WebBrowser" style="rounded=0;whiteSpace=wrap;html=1;" parent="1" vertex="1">
          <mxGeometry x="1025" y="734" width="120" height="60" as="geometry" />
        </mxCell>
        <mxCell id="-WGEHsa4TVuahqUQFX7x-18" value="直結モニタ" style="verticalLabelPosition=bottom;html=1;verticalAlign=top;align=center;strokeColor=none;fillColor=#00BEF2;shape=mxgraph.azure.computer;pointerEvents=1;" parent="1" vertex="1">
          <mxGeometry x="1060" y="407" width="50" height="45" as="geometry" />
        </mxCell>
        <mxCell id="-WGEHsa4TVuahqUQFX7x-19" value="FrameBuffer" style="rounded=0;whiteSpace=wrap;html=1;" parent="1" vertex="1">
          <mxGeometry x="1033.5" y="598" width="103" height="30" as="geometry" />
        </mxCell>
        <mxCell id="-WGEHsa4TVuahqUQFX7x-22" value="Yuv変換" style="rounded=0;whiteSpace=wrap;html=1;" parent="1" vertex="1">
          <mxGeometry x="840" y="598" width="103" height="30" as="geometry" />
        </mxCell>
        <mxCell id="-WGEHsa4TVuahqUQFX7x-23" value="VStreamer" style="rounded=0;whiteSpace=wrap;html=1;" parent="1" vertex="1">
          <mxGeometry x="840" y="649" width="103" height="30" as="geometry" />
        </mxCell>
        <mxCell id="-WGEHsa4TVuahqUQFX7x-25" value="RAMDisk" style="shape=cylinder3;whiteSpace=wrap;html=1;boundedLbl=1;backgroundOutline=1;size=10.230769230768828;verticalAlign=top;" parent="1" vertex="1">
          <mxGeometry x="823.5" y="720" width="130" height="130" as="geometry" />
        </mxCell>
        <mxCell id="-WGEHsa4TVuahqUQFX7x-28" value="" style="shape=note;whiteSpace=wrap;html=1;backgroundOutline=1;darkOpacity=0.05;fontSize=9;size=13;" parent="1" vertex="1">
          <mxGeometry x="886" y="772" width="30" height="40" as="geometry" />
        </mxCell>
        <mxCell id="-WGEHsa4TVuahqUQFX7x-30" value="" style="shape=note;whiteSpace=wrap;html=1;backgroundOutline=1;darkOpacity=0.05;fontSize=9;size=13;" parent="1" vertex="1">
          <mxGeometry x="877" y="780" width="30" height="40" as="geometry" />
        </mxCell>
        <mxCell id="-WGEHsa4TVuahqUQFX7x-31" value="" style="shape=note;whiteSpace=wrap;html=1;backgroundOutline=1;darkOpacity=0.05;fontSize=9;size=13;" parent="1" vertex="1">
          <mxGeometry x="866" y="789" width="30" height="40" as="geometry" />
        </mxCell>
        <mxCell id="-WGEHsa4TVuahqUQFX7x-36" value="" style="endArrow=classic;html=1;rounded=0;entryX=0.5;entryY=1;entryDx=0;entryDy=0;exitX=0.5;exitY=0;exitDx=0;exitDy=0;" parent="1" source="-WGEHsa4TVuahqUQFX7x-17" target="-WGEHsa4TVuahqUQFX7x-19" edge="1">
          <mxGeometry width="50" height="50" relative="1" as="geometry">
            <mxPoint x="1080" y="736" as="sourcePoint" />
            <mxPoint x="1130" y="706" as="targetPoint" />
          </mxGeometry>
        </mxCell>
        <mxCell id="-WGEHsa4TVuahqUQFX7x-37" value="" style="endArrow=classic;html=1;rounded=0;exitX=0.5;exitY=0;exitDx=0;exitDy=0;" parent="1" source="-WGEHsa4TVuahqUQFX7x-19" target="-WGEHsa4TVuahqUQFX7x-18" edge="1">
          <mxGeometry width="50" height="50" relative="1" as="geometry">
            <mxPoint x="1095" y="748" as="sourcePoint" />
            <mxPoint x="1095" y="649" as="targetPoint" />
          </mxGeometry>
        </mxCell>
        <mxCell id="-WGEHsa4TVuahqUQFX7x-40" value="" style="endArrow=classic;html=1;rounded=0;entryX=1;entryY=0.5;entryDx=0;entryDy=0;exitX=0;exitY=0.5;exitDx=0;exitDy=0;" parent="1" source="-WGEHsa4TVuahqUQFX7x-19" target="-WGEHsa4TVuahqUQFX7x-22" edge="1">
          <mxGeometry width="50" height="50" relative="1" as="geometry">
            <mxPoint x="1095" y="741" as="sourcePoint" />
            <mxPoint x="1095" y="642" as="targetPoint" />
          </mxGeometry>
        </mxCell>
        <mxCell id="-WGEHsa4TVuahqUQFX7x-41" value="" style="endArrow=classic;html=1;rounded=0;entryX=0.5;entryY=0;entryDx=0;entryDy=0;exitX=0.5;exitY=1;exitDx=0;exitDy=0;" parent="1" source="-WGEHsa4TVuahqUQFX7x-22" target="-WGEHsa4TVuahqUQFX7x-23" edge="1">
          <mxGeometry width="50" height="50" relative="1" as="geometry">
            <mxPoint x="1044" y="623" as="sourcePoint" />
            <mxPoint x="953" y="623" as="targetPoint" />
          </mxGeometry>
        </mxCell>
        <mxCell id="-WGEHsa4TVuahqUQFX7x-42" value="" style="endArrow=classic;html=1;rounded=0;" parent="1" source="-WGEHsa4TVuahqUQFX7x-23" target="-WGEHsa4TVuahqUQFX7x-25" edge="1">
          <mxGeometry width="50" height="50" relative="1" as="geometry">
            <mxPoint x="890" y="690" as="sourcePoint" />
            <mxPoint x="901" y="666" as="targetPoint" />
          </mxGeometry>
        </mxCell>
        <mxCell id="-WGEHsa4TVuahqUQFX7x-43" value="" style="endArrow=classic;html=1;rounded=0;entryX=0;entryY=0.5;entryDx=0;entryDy=0;dashed=1;exitX=1;exitY=0.5;exitDx=0;exitDy=0;" parent="1" source="-WGEHsa4TVuahqUQFX7x-13" target="-WGEHsa4TVuahqUQFX7x-38" edge="1">
          <mxGeometry width="50" height="50" relative="1" as="geometry">
            <mxPoint x="560" y="620" as="sourcePoint" />
            <mxPoint x="540" y="650" as="targetPoint" />
          </mxGeometry>
        </mxCell>
        <mxCell id="-WGEHsa4TVuahqUQFX7x-45" value="" style="endArrow=classic;html=1;rounded=0;exitX=0;exitY=0.5;exitDx=0;exitDy=0;exitPerimeter=0;" parent="1" edge="1">
          <mxGeometry width="50" height="50" relative="1" as="geometry">
            <mxPoint x="823.5" y="822" as="sourcePoint" />
            <mxPoint x="690" y="822" as="targetPoint" />
          </mxGeometry>
        </mxCell>
        <mxCell id="-WGEHsa4TVuahqUQFX7x-46" value="" style="endArrow=classic;html=1;rounded=0;dashed=1;exitX=0;exitY=1;exitDx=0;exitDy=0;entryX=0.5;entryY=0;entryDx=0;entryDy=0;entryPerimeter=0;" parent="1" source="-WGEHsa4TVuahqUQFX7x-13" target="-WGEHsa4TVuahqUQFX7x-11" edge="1">
          <mxGeometry width="50" height="50" relative="1" as="geometry">
            <mxPoint x="370" y="720" as="sourcePoint" />
            <mxPoint x="420" y="670" as="targetPoint" />
          </mxGeometry>
        </mxCell>
        <mxCell id="-WGEHsa4TVuahqUQFX7x-47" value="" style="endArrow=classic;html=1;rounded=0;" parent="1" target="-WGEHsa4TVuahqUQFX7x-48" edge="1">
          <mxGeometry width="50" height="50" relative="1" as="geometry">
            <mxPoint x="680" y="764" as="sourcePoint" />
            <mxPoint x="300" y="920" as="targetPoint" />
          </mxGeometry>
        </mxCell>
        <mxCell id="-WGEHsa4TVuahqUQFX7x-48" value="ファイルアクセサ" style="rounded=0;whiteSpace=wrap;html=1;" parent="1" vertex="1">
          <mxGeometry x="439" y="740" width="120" height="48" as="geometry" />
        </mxCell>
        <mxCell id="-WGEHsa4TVuahqUQFX7x-49" value="" style="endArrow=classic;html=1;rounded=0;entryX=0.5;entryY=1;entryDx=0;entryDy=0;" parent="1" source="-WGEHsa4TVuahqUQFX7x-48" target="-WGEHsa4TVuahqUQFX7x-13" edge="1">
          <mxGeometry width="50" height="50" relative="1" as="geometry">
            <mxPoint x="390" y="930" as="sourcePoint" />
            <mxPoint x="498" y="740" as="targetPoint" />
          </mxGeometry>
        </mxCell>
        <mxCell id="-WGEHsa4TVuahqUQFX7x-50" value="" style="endArrow=classic;html=1;rounded=0;entryX=0.5;entryY=1;entryDx=0;entryDy=0;entryPerimeter=0;exitX=0.5;exitY=0;exitDx=0;exitDy=0;" parent="1" source="-WGEHsa4TVuahqUQFX7x-13" target="-WGEHsa4TVuahqUQFX7x-4" edge="1">
          <mxGeometry width="50" height="50" relative="1" as="geometry">
            <mxPoint x="480" y="590" as="sourcePoint" />
            <mxPoint x="530" y="540" as="targetPoint" />
          </mxGeometry>
        </mxCell>
        <mxCell id="-WGEHsa4TVuahqUQFX7x-51" value="自動削除" style="rounded=0;whiteSpace=wrap;html=1;" parent="1" vertex="1">
          <mxGeometry x="310" y="601" width="89" height="60" as="geometry" />
        </mxCell>
        <mxCell id="-WGEHsa4TVuahqUQFX7x-52" value="" style="endArrow=classic;html=1;rounded=0;dashed=1;entryX=0.5;entryY=1;entryDx=0;entryDy=0;entryPerimeter=0;" parent="1" source="-WGEHsa4TVuahqUQFX7x-51" target="-WGEHsa4TVuahqUQFX7x-5" edge="1">
          <mxGeometry width="50" height="50" relative="1" as="geometry">
            <mxPoint x="448" y="666" as="sourcePoint" />
            <mxPoint x="200" y="753" as="targetPoint" />
          </mxGeometry>
        </mxCell>
        <mxCell id="-WGEHsa4TVuahqUQFX7x-54" value="イベント&lt;div&gt;ロガー&lt;/div&gt;" style="rounded=0;whiteSpace=wrap;html=1;" parent="1" vertex="1">
          <mxGeometry x="190" y="601" width="89" height="60" as="geometry" />
        </mxCell>
        <mxCell id="-WGEHsa4TVuahqUQFX7x-55" value="" style="endArrow=classic;html=1;rounded=0;dashed=1;entryX=0.036;entryY=0.895;entryDx=0;entryDy=0;entryPerimeter=0;exitX=0.5;exitY=0;exitDx=0;exitDy=0;" parent="1" source="-WGEHsa4TVuahqUQFX7x-51" target="-WGEHsa4TVuahqUQFX7x-4" edge="1">
          <mxGeometry width="50" height="50" relative="1" as="geometry">
            <mxPoint x="350" y="590" as="sourcePoint" />
            <mxPoint x="349" y="456" as="targetPoint" />
          </mxGeometry>
        </mxCell>
        <mxCell id="-WGEHsa4TVuahqUQFX7x-57" value="" style="endArrow=classic;html=1;rounded=0;dashed=1;entryX=0;entryY=1;entryDx=0;entryDy=0;entryPerimeter=0;" parent="1" source="-WGEHsa4TVuahqUQFX7x-54" target="-WGEHsa4TVuahqUQFX7x-5" edge="1">
          <mxGeometry width="50" height="50" relative="1" as="geometry">
            <mxPoint x="362" y="600" as="sourcePoint" />
            <mxPoint x="349" y="456" as="targetPoint" />
          </mxGeometry>
        </mxCell>
        <mxCell id="-WGEHsa4TVuahqUQFX7x-62" value="デコーダ" style="rounded=0;whiteSpace=wrap;html=1;verticalAlign=top;" parent="1" vertex="1">
          <mxGeometry x="452" y="57" width="120" height="133" as="geometry" />
        </mxCell>
        <mxCell id="-WGEHsa4TVuahqUQFX7x-63" value="ffmpeg" style="rounded=0;whiteSpace=wrap;html=1;" parent="1" vertex="1">
          <mxGeometry x="463" y="140" width="100" height="30" as="geometry" />
        </mxCell>
        <mxCell id="-WGEHsa4TVuahqUQFX7x-64" value="Yuv変換" style="rounded=0;whiteSpace=wrap;html=1;" parent="1" vertex="1">
          <mxGeometry x="463" y="87" width="100" height="30" as="geometry" />
        </mxCell>
        <mxCell id="-WGEHsa4TVuahqUQFX7x-66" value="" style="endArrow=classic;html=1;rounded=0;dashed=1;exitX=0.5;exitY=1;exitDx=0;exitDy=0;entryX=0.5;entryY=0;entryDx=0;entryDy=0;entryPerimeter=0;" parent="1" source="-WGEHsa4TVuahqUQFX7x-51" target="-WGEHsa4TVuahqUQFX7x-11" edge="1">
          <mxGeometry width="50" height="50" relative="1" as="geometry">
            <mxPoint x="448" y="671" as="sourcePoint" />
            <mxPoint x="269" y="752" as="targetPoint" />
          </mxGeometry>
        </mxCell>
        <mxCell id="-WGEHsa4TVuahqUQFX7x-67" value="" style="endArrow=classic;html=1;rounded=0;dashed=1;exitX=0.5;exitY=1;exitDx=0;exitDy=0;entryX=0.5;entryY=0;entryDx=0;entryDy=0;entryPerimeter=0;" parent="1" source="-WGEHsa4TVuahqUQFX7x-54" target="-WGEHsa4TVuahqUQFX7x-11" edge="1">
          <mxGeometry width="50" height="50" relative="1" as="geometry">
            <mxPoint x="365" y="671" as="sourcePoint" />
            <mxPoint x="269" y="741" as="targetPoint" />
          </mxGeometry>
        </mxCell>
        <mxCell id="-WGEHsa4TVuahqUQFX7x-69" value="FIleAPI" style="shape=flexArrow;endArrow=classic;startArrow=classic;html=1;rounded=0;fillColor=default;" parent="1" edge="1">
          <mxGeometry width="100" height="100" relative="1" as="geometry">
            <mxPoint x="100" y="240" as="sourcePoint" />
            <mxPoint x="680" y="240" as="targetPoint" />
          </mxGeometry>
        </mxCell>
        <mxCell id="-WGEHsa4TVuahqUQFX7x-61" value="" style="endArrow=classic;html=1;rounded=0;exitX=0;exitY=0;exitDx=31;exitDy=0;exitPerimeter=0;" parent="1" source="-WGEHsa4TVuahqUQFX7x-2" target="-WGEHsa4TVuahqUQFX7x-63" edge="1">
          <mxGeometry width="50" height="50" relative="1" as="geometry">
            <mxPoint x="508" y="611" as="sourcePoint" />
            <mxPoint x="507" y="456" as="targetPoint" />
          </mxGeometry>
        </mxCell>
        <mxCell id="-WGEHsa4TVuahqUQFX7x-71" value="" style="endArrow=classic;html=1;rounded=0;exitX=0.5;exitY=0;exitDx=0;exitDy=0;entryX=0.5;entryY=0.767;entryDx=0;entryDy=0;entryPerimeter=0;" parent="1" source="-WGEHsa4TVuahqUQFX7x-63" target="-WGEHsa4TVuahqUQFX7x-64" edge="1">
          <mxGeometry width="50" height="50" relative="1" as="geometry">
            <mxPoint x="520" y="150" as="sourcePoint" />
            <mxPoint x="500" y="102" as="targetPoint" />
            <Array as="points" />
          </mxGeometry>
        </mxCell>
        <mxCell id="-WGEHsa4TVuahqUQFX7x-72" value="" style="endArrow=classic;html=1;rounded=0;dashed=1;entryX=0;entryY=0.5;entryDx=0;entryDy=0;" parent="1" source="-WGEHsa4TVuahqUQFX7x-9" target="-WGEHsa4TVuahqUQFX7x-62" edge="1">
          <mxGeometry width="50" height="50" relative="1" as="geometry">
            <mxPoint x="365" y="611" as="sourcePoint" />
            <mxPoint x="465" y="443" as="targetPoint" />
          </mxGeometry>
        </mxCell>
        <mxCell id="z3cWCiB7cAhFi7ba4ayj-1" value="スプレッド&lt;br&gt;&lt;div&gt;Calculator&lt;/div&gt;" style="rounded=0;whiteSpace=wrap;html=1;" vertex="1" parent="1">
          <mxGeometry x="1137" y="1165" width="180" height="60" as="geometry" />
        </mxCell>
        <mxCell id="z3cWCiB7cAhFi7ba4ayj-3" value="セルキャッシュ" style="rounded=0;whiteSpace=wrap;html=1;" vertex="1" parent="1">
          <mxGeometry x="119" y="990" width="180" height="60" as="geometry" />
        </mxCell>
        <mxCell id="z3cWCiB7cAhFi7ba4ayj-4" value="スタック" style="rounded=0;whiteSpace=wrap;html=1;" vertex="1" parent="1">
          <mxGeometry x="379" y="980" width="120" height="60" as="geometry" />
        </mxCell>
        <mxCell id="z3cWCiB7cAhFi7ba4ayj-22" value="" style="edgeStyle=orthogonalEdgeStyle;rounded=0;orthogonalLoop=1;jettySize=auto;html=1;" edge="1" parent="1" target="z3cWCiB7cAhFi7ba4ayj-15">
          <mxGeometry relative="1" as="geometry">
            <mxPoint x="401" y="1400" as="sourcePoint" />
          </mxGeometry>
        </mxCell>
        <mxCell id="z3cWCiB7cAhFi7ba4ayj-6" value="数値演算&lt;div&gt;プログラム&lt;/div&gt;" style="rounded=0;whiteSpace=wrap;html=1;" vertex="1" parent="1">
          <mxGeometry x="772" y="1000" width="180" height="60" as="geometry" />
        </mxCell>
        <mxCell id="z3cWCiB7cAhFi7ba4ayj-8" value="初期値" style="rounded=0;whiteSpace=wrap;html=1;" vertex="1" parent="1">
          <mxGeometry x="953.5" y="960" width="180" height="60" as="geometry" />
        </mxCell>
        <mxCell id="z3cWCiB7cAhFi7ba4ayj-9" value="ANS&lt;div&gt;一時変数置き場&lt;/div&gt;" style="rounded=0;whiteSpace=wrap;html=1;" vertex="1" parent="1">
          <mxGeometry x="700" y="920" width="120" height="60" as="geometry" />
        </mxCell>
        <mxCell id="z3cWCiB7cAhFi7ba4ayj-10" value="結果データ" style="rounded=0;whiteSpace=wrap;html=1;" vertex="1" parent="1">
          <mxGeometry x="480" y="920" width="120" height="60" as="geometry" />
        </mxCell>
        <mxCell id="z3cWCiB7cAhFi7ba4ayj-24" value="" style="edgeStyle=orthogonalEdgeStyle;rounded=0;orthogonalLoop=1;jettySize=auto;html=1;entryX=0;entryY=0.5;entryDx=0;entryDy=0;entryPerimeter=0;exitX=1;exitY=0.5;exitDx=0;exitDy=0;" edge="1" parent="1" source="z3cWCiB7cAhFi7ba4ayj-15" target="z3cWCiB7cAhFi7ba4ayj-64">
          <mxGeometry relative="1" as="geometry">
            <mxPoint x="736.0000000000005" y="1400" as="targetPoint" />
          </mxGeometry>
        </mxCell>
        <mxCell id="z3cWCiB7cAhFi7ba4ayj-15" value="バイトコード" style="rounded=0;whiteSpace=wrap;html=1;" vertex="1" parent="1">
          <mxGeometry x="460" y="1370" width="180" height="60" as="geometry" />
        </mxCell>
        <mxCell id="z3cWCiB7cAhFi7ba4ayj-18" value="" style="endArrow=classic;html=1;rounded=0;exitX=1;exitY=0.5;exitDx=0;exitDy=0;entryX=0;entryY=0.5;entryDx=0;entryDy=0;" edge="1" parent="1" source="z3cWCiB7cAhFi7ba4ayj-62" target="z3cWCiB7cAhFi7ba4ayj-15">
          <mxGeometry width="50" height="50" relative="1" as="geometry">
            <mxPoint x="401" y="1400" as="sourcePoint" />
            <mxPoint x="600" y="1400" as="targetPoint" />
          </mxGeometry>
        </mxCell>
        <mxCell id="z3cWCiB7cAhFi7ba4ayj-26" value="" style="shape=cylinder3;whiteSpace=wrap;html=1;boundedLbl=1;backgroundOutline=1;size=27.571428571428896;" vertex="1" parent="1">
          <mxGeometry x="130" y="1550" width="320" height="290" as="geometry" />
        </mxCell>
        <mxCell id="z3cWCiB7cAhFi7ba4ayj-14" value="プログラム" style="rounded=0;whiteSpace=wrap;html=1;" vertex="1" parent="1">
          <mxGeometry x="219" y="1630" width="180" height="60" as="geometry" />
        </mxCell>
        <mxCell id="z3cWCiB7cAhFi7ba4ayj-16" value="" style="endArrow=classic;html=1;rounded=0;exitX=0.5;exitY=0;exitDx=0;exitDy=0;entryX=0.5;entryY=1;entryDx=0;entryDy=0;" edge="1" parent="1" source="z3cWCiB7cAhFi7ba4ayj-14" target="z3cWCiB7cAhFi7ba4ayj-62">
          <mxGeometry width="50" height="50" relative="1" as="geometry">
            <mxPoint x="252" y="1440" as="sourcePoint" />
            <mxPoint x="311" y="1430" as="targetPoint" />
          </mxGeometry>
        </mxCell>
        <mxCell id="z3cWCiB7cAhFi7ba4ayj-7" value="初期値" style="rounded=0;whiteSpace=wrap;html=1;" vertex="1" parent="1">
          <mxGeometry x="217.75" y="1733.5" width="180" height="60" as="geometry" />
        </mxCell>
        <mxCell id="z3cWCiB7cAhFi7ba4ayj-12" value="初期値" style="rounded=0;whiteSpace=wrap;html=1;" vertex="1" parent="1">
          <mxGeometry x="208" y="1744" width="180" height="60" as="geometry" />
        </mxCell>
        <mxCell id="z3cWCiB7cAhFi7ba4ayj-13" value="初期値" style="rounded=0;whiteSpace=wrap;html=1;" vertex="1" parent="1">
          <mxGeometry x="195" y="1755" width="180" height="60" as="geometry" />
        </mxCell>
        <mxCell id="z3cWCiB7cAhFi7ba4ayj-25" value="" style="endArrow=classic;html=1;rounded=0;exitX=1;exitY=0.5;exitDx=0;exitDy=0;entryX=0;entryY=0.75;entryDx=0;entryDy=0;" edge="1" parent="1" source="z3cWCiB7cAhFi7ba4ayj-13" target="z3cWCiB7cAhFi7ba4ayj-64">
          <mxGeometry width="50" height="50" relative="1" as="geometry">
            <mxPoint x="390" y="1630" as="sourcePoint" />
            <mxPoint x="736.0000000000005" y="1415" as="targetPoint" />
            <Array as="points">
              <mxPoint x="680" y="1780" />
              <mxPoint x="680" y="1580" />
              <mxPoint x="680" y="1415" />
            </Array>
          </mxGeometry>
        </mxCell>
        <mxCell id="z3cWCiB7cAhFi7ba4ayj-29" value="関数" style="rounded=0;whiteSpace=wrap;html=1;" vertex="1" parent="1">
          <mxGeometry x="750" y="1122" width="180" height="60" as="geometry" />
        </mxCell>
        <mxCell id="z3cWCiB7cAhFi7ba4ayj-30" value="関数" style="rounded=0;whiteSpace=wrap;html=1;" vertex="1" parent="1">
          <mxGeometry x="741" y="1132" width="180" height="60" as="geometry" />
        </mxCell>
        <mxCell id="z3cWCiB7cAhFi7ba4ayj-31" value="関数" style="rounded=0;whiteSpace=wrap;html=1;" vertex="1" parent="1">
          <mxGeometry x="730" y="1142" width="180" height="60" as="geometry" />
        </mxCell>
        <mxCell id="z3cWCiB7cAhFi7ba4ayj-32" value="" style="endArrow=classic;html=1;rounded=0;entryX=0.5;entryY=1;entryDx=0;entryDy=0;exitX=0.5;exitY=0;exitDx=0;exitDy=0;" edge="1" parent="1" source="z3cWCiB7cAhFi7ba4ayj-64" target="z3cWCiB7cAhFi7ba4ayj-31">
          <mxGeometry width="50" height="50" relative="1" as="geometry">
            <mxPoint x="826.0000000000005" y="1370" as="sourcePoint" />
            <mxPoint x="900" y="1480" as="targetPoint" />
          </mxGeometry>
        </mxCell>
        <mxCell id="z3cWCiB7cAhFi7ba4ayj-33" value="ANS結果" style="rounded=0;whiteSpace=wrap;html=1;" vertex="1" parent="1">
          <mxGeometry x="1072" y="1701" width="120" height="54.5" as="geometry" />
        </mxCell>
        <mxCell id="z3cWCiB7cAhFi7ba4ayj-34" value="ANS結果" style="rounded=0;whiteSpace=wrap;html=1;" vertex="1" parent="1">
          <mxGeometry x="1064" y="1711" width="120" height="54.5" as="geometry" />
        </mxCell>
        <mxCell id="z3cWCiB7cAhFi7ba4ayj-35" value="ANS結果" style="rounded=0;whiteSpace=wrap;html=1;" vertex="1" parent="1">
          <mxGeometry x="1054" y="1721.5" width="120" height="54.5" as="geometry" />
        </mxCell>
        <mxCell id="z3cWCiB7cAhFi7ba4ayj-39" value="" style="endArrow=classic;html=1;rounded=0;exitX=1;exitY=0.5;exitDx=0;exitDy=0;entryX=0.5;entryY=0;entryDx=0;entryDy=0;" edge="1" parent="1" source="z3cWCiB7cAhFi7ba4ayj-64" target="z3cWCiB7cAhFi7ba4ayj-35">
          <mxGeometry width="50" height="50" relative="1" as="geometry">
            <mxPoint x="916.0000000000005" y="1400" as="sourcePoint" />
            <mxPoint x="1140" y="1380" as="targetPoint" />
            <Array as="points">
              <mxPoint x="1114" y="1400" />
            </Array>
          </mxGeometry>
        </mxCell>
        <mxCell id="z3cWCiB7cAhFi7ba4ayj-40" value="ANS結果" style="rounded=0;whiteSpace=wrap;html=1;" vertex="1" parent="1">
          <mxGeometry x="861" y="1701" width="120" height="54.5" as="geometry" />
        </mxCell>
        <mxCell id="z3cWCiB7cAhFi7ba4ayj-41" value="ANS結果" style="rounded=0;whiteSpace=wrap;html=1;" vertex="1" parent="1">
          <mxGeometry x="851" y="1711" width="120" height="54.5" as="geometry" />
        </mxCell>
        <mxCell id="z3cWCiB7cAhFi7ba4ayj-42" value="ANS結果" style="rounded=0;whiteSpace=wrap;html=1;" vertex="1" parent="1">
          <mxGeometry x="841" y="1721.5" width="120" height="54.5" as="geometry" />
        </mxCell>
        <mxCell id="z3cWCiB7cAhFi7ba4ayj-46" value="" style="endArrow=classic;html=1;rounded=0;exitX=0.75;exitY=0;exitDx=0;exitDy=0;" edge="1" parent="1">
          <mxGeometry width="50" height="50" relative="1" as="geometry">
            <mxPoint x="871.0000000000005" y="1370" as="sourcePoint" />
            <mxPoint x="1120" y="1310" as="targetPoint" />
            <Array as="points">
              <mxPoint x="871" y="1340" />
              <mxPoint x="1120" y="1340" />
            </Array>
          </mxGeometry>
        </mxCell>
        <mxCell id="z3cWCiB7cAhFi7ba4ayj-47" value="ニーモニックアクセス機構" style="shape=flexArrow;endArrow=classic;startArrow=classic;html=1;rounded=0;fillColor=default;" edge="1" parent="1">
          <mxGeometry width="100" height="100" relative="1" as="geometry">
            <mxPoint x="1000" y="1300" as="sourcePoint" />
            <mxPoint x="1580" y="1300" as="targetPoint" />
          </mxGeometry>
        </mxCell>
        <mxCell id="z3cWCiB7cAhFi7ba4ayj-48" value="セル参照" style="endArrow=classic;html=1;rounded=0;entryX=0.572;entryY=1.031;entryDx=0;entryDy=0;entryPerimeter=0;" edge="1" parent="1" target="z3cWCiB7cAhFi7ba4ayj-1">
          <mxGeometry width="50" height="50" relative="1" as="geometry">
            <mxPoint x="1240" y="1300" as="sourcePoint" />
            <mxPoint x="1340" y="1360" as="targetPoint" />
          </mxGeometry>
        </mxCell>
        <mxCell id="z3cWCiB7cAhFi7ba4ayj-49" value="" style="shape=cylinder3;whiteSpace=wrap;html=1;boundedLbl=1;backgroundOutline=1;size=15;" vertex="1" parent="1">
          <mxGeometry x="1320" y="1330" width="100" height="80" as="geometry" />
        </mxCell>
        <mxCell id="z3cWCiB7cAhFi7ba4ayj-50" value="結果データ" style="text;strokeColor=none;align=center;fillColor=none;html=1;verticalAlign=middle;whiteSpace=wrap;rounded=0;" vertex="1" parent="1">
          <mxGeometry x="1324" y="1370" width="100" height="30" as="geometry" />
        </mxCell>
        <mxCell id="z3cWCiB7cAhFi7ba4ayj-51" value="設定データ" style="shape=cylinder3;whiteSpace=wrap;html=1;boundedLbl=1;backgroundOutline=1;size=15;" vertex="1" parent="1">
          <mxGeometry x="1440" y="1330" width="110" height="80" as="geometry" />
        </mxCell>
        <mxCell id="z3cWCiB7cAhFi7ba4ayj-52" value="" style="endArrow=classic;html=1;rounded=0;" edge="1" parent="1" target="z3cWCiB7cAhFi7ba4ayj-49">
          <mxGeometry width="50" height="50" relative="1" as="geometry">
            <mxPoint x="1370" y="1310" as="sourcePoint" />
            <mxPoint x="1410" y="1420" as="targetPoint" />
          </mxGeometry>
        </mxCell>
        <mxCell id="z3cWCiB7cAhFi7ba4ayj-53" value="" style="endArrow=classic;html=1;rounded=0;" edge="1" parent="1">
          <mxGeometry width="50" height="50" relative="1" as="geometry">
            <mxPoint x="1504" y="1311" as="sourcePoint" />
            <mxPoint x="1504" y="1331" as="targetPoint" />
          </mxGeometry>
        </mxCell>
        <mxCell id="z3cWCiB7cAhFi7ba4ayj-54" value="セル・ニーモニック参照" style="text;html=1;align=center;verticalAlign=middle;whiteSpace=wrap;rounded=0;" vertex="1" parent="1">
          <mxGeometry x="921" y="1320" width="149" height="30" as="geometry" />
        </mxCell>
        <mxCell id="z3cWCiB7cAhFi7ba4ayj-56" value="" style="endArrow=classic;html=1;rounded=0;entryX=1;entryY=0.5;entryDx=0;entryDy=0;exitX=0;exitY=0.5;exitDx=0;exitDy=0;" edge="1" parent="1">
          <mxGeometry width="50" height="50" relative="1" as="geometry">
            <mxPoint x="2260" y="1744" as="sourcePoint" />
            <mxPoint x="2167.0000000000005" y="1744" as="targetPoint" />
          </mxGeometry>
        </mxCell>
        <mxCell id="z3cWCiB7cAhFi7ba4ayj-62" value="数値演算&lt;div&gt;コンパイラ&lt;/div&gt;" style="shape=process;whiteSpace=wrap;html=1;backgroundOutline=1;" vertex="1" parent="1">
          <mxGeometry x="250" y="1370" width="120" height="60" as="geometry" />
        </mxCell>
        <mxCell id="z3cWCiB7cAhFi7ba4ayj-64" value="数値演算&lt;div&gt;Calculator&lt;/div&gt;" style="shape=process;whiteSpace=wrap;html=1;backgroundOutline=1;" vertex="1" parent="1">
          <mxGeometry x="740" y="1370" width="160" height="60" as="geometry" />
        </mxCell>
        <mxCell id="z3cWCiB7cAhFi7ba4ayj-73" value="" style="group" vertex="1" connectable="0" parent="1">
          <mxGeometry x="794" y="1471" width="50" height="53" as="geometry" />
        </mxCell>
        <mxCell id="z3cWCiB7cAhFi7ba4ayj-68" value="" style="rounded=0;whiteSpace=wrap;html=1;" vertex="1" parent="z3cWCiB7cAhFi7ba4ayj-73">
          <mxGeometry width="50" height="22" as="geometry" />
        </mxCell>
        <mxCell id="z3cWCiB7cAhFi7ba4ayj-69" value="" style="rounded=0;whiteSpace=wrap;html=1;" vertex="1" parent="z3cWCiB7cAhFi7ba4ayj-73">
          <mxGeometry y="11" width="50" height="22" as="geometry" />
        </mxCell>
        <mxCell id="z3cWCiB7cAhFi7ba4ayj-70" value="" style="rounded=0;whiteSpace=wrap;html=1;" vertex="1" parent="z3cWCiB7cAhFi7ba4ayj-73">
          <mxGeometry y="21" width="50" height="22" as="geometry" />
        </mxCell>
        <mxCell id="z3cWCiB7cAhFi7ba4ayj-71" value="" style="rounded=0;whiteSpace=wrap;html=1;" vertex="1" parent="z3cWCiB7cAhFi7ba4ayj-73">
          <mxGeometry y="31" width="50" height="22" as="geometry" />
        </mxCell>
        <mxCell id="z3cWCiB7cAhFi7ba4ayj-72" value="" style="rounded=0;whiteSpace=wrap;html=1;" vertex="1" parent="z3cWCiB7cAhFi7ba4ayj-73">
          <mxGeometry y="42" width="50" height="8" as="geometry" />
        </mxCell>
        <mxCell id="z3cWCiB7cAhFi7ba4ayj-74" value="" style="endArrow=classic;startArrow=classic;html=1;rounded=0;entryX=0.5;entryY=1;entryDx=0;entryDy=0;exitX=0.5;exitY=0;exitDx=0;exitDy=0;" edge="1" parent="1" source="z3cWCiB7cAhFi7ba4ayj-68" target="z3cWCiB7cAhFi7ba4ayj-64">
          <mxGeometry width="50" height="50" relative="1" as="geometry">
            <mxPoint x="810" y="1470" as="sourcePoint" />
            <mxPoint x="860" y="1420" as="targetPoint" />
          </mxGeometry>
        </mxCell>
        <mxCell id="z3cWCiB7cAhFi7ba4ayj-75" value="スタック" style="text;html=1;align=center;verticalAlign=middle;whiteSpace=wrap;rounded=0;" vertex="1" parent="1">
          <mxGeometry x="820" y="1441" width="60" height="30" as="geometry" />
        </mxCell>
        <mxCell id="z3cWCiB7cAhFi7ba4ayj-76" value="セルキャッシュ" style="shape=cylinder3;whiteSpace=wrap;html=1;boundedLbl=1;backgroundOutline=1;size=15;" vertex="1" parent="1">
          <mxGeometry x="1190" y="1330" width="110" height="80" as="geometry" />
        </mxCell>
        <mxCell id="z3cWCiB7cAhFi7ba4ayj-77" value="" style="endArrow=classic;html=1;rounded=0;" edge="1" parent="1">
          <mxGeometry width="50" height="50" relative="1" as="geometry">
            <mxPoint x="1243" y="1313" as="sourcePoint" />
            <mxPoint x="1243" y="1333" as="targetPoint" />
          </mxGeometry>
        </mxCell>
        <mxCell id="z3cWCiB7cAhFi7ba4ayj-78" value="数値演算&lt;div&gt;パッケージ&lt;/div&gt;" style="shape=process;whiteSpace=wrap;html=1;backgroundOutline=1;" vertex="1" parent="1">
          <mxGeometry x="116" y="1178" width="120" height="60" as="geometry" />
        </mxCell>
        <mxCell id="z3cWCiB7cAhFi7ba4ayj-80" value="" style="endArrow=classic;html=1;rounded=0;entryX=0;entryY=0.5;entryDx=0;entryDy=0;exitX=0.5;exitY=1;exitDx=0;exitDy=0;" edge="1" parent="1" source="z3cWCiB7cAhFi7ba4ayj-78" target="z3cWCiB7cAhFi7ba4ayj-13">
          <mxGeometry width="50" height="50" relative="1" as="geometry">
            <mxPoint x="-50" y="1597" as="sourcePoint" />
            <mxPoint x="229" y="1670" as="targetPoint" />
            <Array as="points">
              <mxPoint x="170" y="1790" />
            </Array>
          </mxGeometry>
        </mxCell>
        <mxCell id="z3cWCiB7cAhFi7ba4ayj-81" value="編集時・検査設定ロード時" style="text;html=1;align=center;verticalAlign=middle;whiteSpace=wrap;rounded=0;" vertex="1" parent="1">
          <mxGeometry x="310" y="1450" width="200" height="30" as="geometry" />
        </mxCell>
        <mxCell id="z3cWCiB7cAhFi7ba4ayj-82" value="設定保存時" style="text;html=1;align=center;verticalAlign=middle;whiteSpace=wrap;rounded=0;" vertex="1" parent="1">
          <mxGeometry x="644" y="1858" width="200" height="30" as="geometry" />
        </mxCell>
        <mxCell id="z3cWCiB7cAhFi7ba4ayj-85" value="引き継ぎ" style="text;html=1;align=center;verticalAlign=middle;whiteSpace=wrap;rounded=0;" vertex="1" parent="1">
          <mxGeometry x="950" y="1755.5" width="120" height="30" as="geometry" />
        </mxCell>
        <mxCell id="z3cWCiB7cAhFi7ba4ayj-87" value="" style="endArrow=classic;html=1;rounded=0;entryX=1;entryY=0.5;entryDx=0;entryDy=0;exitX=0;exitY=0.5;exitDx=0;exitDy=0;" edge="1" parent="1" source="z3cWCiB7cAhFi7ba4ayj-35" target="z3cWCiB7cAhFi7ba4ayj-42">
          <mxGeometry width="50" height="50" relative="1" as="geometry">
            <mxPoint x="1390" y="1800" as="sourcePoint" />
            <mxPoint x="1440" y="1750" as="targetPoint" />
          </mxGeometry>
        </mxCell>
        <mxCell id="z3cWCiB7cAhFi7ba4ayj-90" value="" style="endArrow=classic;startArrow=classic;html=1;rounded=0;exitX=0.5;exitY=1;exitDx=0;exitDy=0;entryX=0.5;entryY=1;entryDx=0;entryDy=0;" edge="1" parent="1" source="z3cWCiB7cAhFi7ba4ayj-13" target="z3cWCiB7cAhFi7ba4ayj-35">
          <mxGeometry width="50" height="50" relative="1" as="geometry">
            <mxPoint x="370" y="1940" as="sourcePoint" />
            <mxPoint x="420" y="1890" as="targetPoint" />
            <Array as="points">
              <mxPoint x="285" y="1880" />
              <mxPoint x="1114" y="1880" />
            </Array>
          </mxGeometry>
        </mxCell>
        <mxCell id="z3cWCiB7cAhFi7ba4ayj-91" value="" style="endArrow=classic;html=1;rounded=0;entryX=0;entryY=0.5;entryDx=0;entryDy=0;" edge="1" parent="1" target="z3cWCiB7cAhFi7ba4ayj-14">
          <mxGeometry width="50" height="50" relative="1" as="geometry">
            <mxPoint x="170" y="1660" as="sourcePoint" />
            <mxPoint x="210" y="1650" as="targetPoint" />
          </mxGeometry>
        </mxCell>
      </root>
    </mxGraphModel>
  </diagram>
</mxfile>
